<mxfile host="app.diagrams.net" modified="2024-06-27T07:51:58.440Z" agent="Mozilla/5.0 (Windows NT 10.0; Win64; x64) AppleWebKit/537.36 (KHTML, like Gecko) Chrome/121.0.0.0 Safari/537.36" version="24.6.3" etag="be-uRhIWrbOuKPwCB2xU" type="github">
  <diagram name="第 1 页" id="49RKD_yVGxZR54c72kJm">
    <mxGraphModel>
      <root>
        <mxCell id="0" />
        <mxCell id="1" parent="0" />
      </root>
    </mxGraphModel>
  </diagram>
</mxfile>
